# xmcd CD database file
#
# Track frame offsets:
#	150
#	21377
#	35847
#	52725
#	69112
#	87620
#	100015
#	117592
#	137660
#	157992
#	177455
#
# Disc length: 2609 seconds
#
# Revision: 0
# Processed by: cddbd v1.4b42PL1 Copyright (c) Steve Scherf et al.
# Submitted via: CDex 1.40Beta6
#
DISCID=910a2f0b
DTITLE=Jolly Jumpers - Ruis
DYEAR=1998
DGENRE=Blues
TTITLE0=Bottle And Chain
TTITLE1=Bimbo Disco
TTITLE2=Tobacco Road
TTITLE3=Blood Runner
TTITLE4=Sycamore
TTITLE5=Barracuda
TTITLE6=I Hate The Blues
TTITLE7=Shiver
TTITLE8=Troubeline Man
TTITLE9=Nimetön Hotelli
TTITLE10=Ma-Kinta-Te
EXTD=
EXTT0=
EXTT1=
EXTT2=
EXTT3=
EXTT4=
EXTT5=
EXTT6=
EXTT7=
EXTT8=
EXTT9=
EXTT10=
PLAYORDER=
